<?xml version="1.0" encoding="UTF-8"?><svg id="Layer_2" xmlns="http://www.w3.org/2000/svg" viewBox="0 0 638.62 639.95"><defs><style>.cls-1{fill:#1a1731;}</style></defs><g id="Layer_1-2"><path class="cls-1" d="m612.15,188.33c-10.85-24.46-17.44-40.4-33.59-61.45-3.75-4.89-6.91-8.63-6.91-8.63-11.98-3.82-22.47,5.52-19.98,17.97,43.59,54.25,59.82,115.98,59.82,186.09s-41.09,136.67-137.14,136.93h-.41c-74.17,0-133.72-54.6-138.59-127.15-1.82-27.21,5.3-71.01,34.48-113.74,32.65-49.03,105.16-98.76,202.12-136.07,1.3-.47,1.92-.86,1.94-1.2h0c-8.02-.86-16.2-1.41-24.45-1.72-3.42-.01-7.01,0-10.64,0-22.91,0-46.08,1.05-69.27,3.27-37.6,3.97-67.76,10.06-76.83,12-35.06,7.72-69.56,18.59-102.65,33.19-121.97,53.81-219.08,158.23-250.22,275.11-.66-2.22-1.29-4.45-1.89-6.69-12.9-47.74-13.58-98.37-1.47-146.85C69.59,116.69,189.07,27.89,320.04,27.89c23.37,0,47.13,2.83,70.81,8.74.47.12.94.25,1.41.36,7.54,1.95,42.81,11.95,56.78,20.4,16.74-1.42,33.9-2.22,50.06-2.62-7.87-5.25-15.99-10.19-24.32-14.75-24.16-13.35-50.08-23.59-77.19-30.36C314.64-11.05,228.59,1.77,155.29,45.78,81.99,89.78,30.21,159.69,9.49,242.64,2.78,269.52-.35,297,.03,324.37v.02c2.35,158.02,119.14,288.28,271.15,311.74.8.13,1.61.25,2.42.37,1.01.15,2.02.3,3.04.44,9.37,1.26,21.8,3.01,37.7,3.01,20.3,0,33.4-3.17,31.74-7.49-1.87-4.87-14.85-7.27-41.18-26.5-10.46-7.99-23.16-19.12-35.75-33.71-39.24-45.43-58.96-101.17-58.63-165.67.37-71.41,24.64-133.13,72.14-183.45,34.66-36.72,82.34-68.18,142.32-94.02-9.91,7.51-21.02,16.62-34.02,27.76-47.51,39.17-68.44,82.83-77.09,122.3-4.76,18.8-6.74,37.47-5.59,54.75,5.84,87,77.01,152.47,165.65,152.47.16,0,.33,0,.49,0,45.08-.12,84.48-15.29,114.39-42.71,32.59-29.87,49.81-71.84,49.81-121.36,0-46.47-7.64-91.55-26.47-133.98Zm-428.23,218.11c-.46,89.19,35.6,149.37,65.93,184.15,5.27,6.04,10.53,11.52,15.67,16.5-9.37-1.75-18.59-3.92-27.63-6.54-1.83-.53-3.65-1.07-5.47-1.65-6.92-2.2-10.51-3.38-14.83-5.05-.05-.02-.09-.04-.14-.05-1-.39-2.05-.8-3.18-1.26-4.61-1.81-9.17-3.69-13.66-5.73-37.03-16.78-69.97-41.1-96.91-71.02-1.91-2.23-3.87-4.53-5.91-6.95-19.67-23.33-29.99-52.62-30.32-82.39-.17-15.8,2.46-31.73,8.03-46.98,22.82-62.57,66.19-120.79,126.62-168.7,55.72-44.17,121.26-79.74,187.75-94.9-136.13,65.72-205.29,163.08-205.95,290.57Z"/></g></svg>